<?xml version="1.0" standalone="no"?><!DOCTYPE svg PUBLIC "-//W3C//DTD SVG 1.1//EN" "http://www.w3.org/Graphics/SVG/1.1/DTD/svg11.dtd"><svg t="1597344209329" class="icon" viewBox="0 0 1024 1024" version="1.1" xmlns="http://www.w3.org/2000/svg" p-id="6563" xmlns:xlink="http://www.w3.org/1999/xlink" width="200" height="200"><defs><style type="text/css"></style></defs><path d="M678.059172 182.718709c-32.120023-52.133653-89.562277-87.066369-155.159002-87.066369-63.134395 0-118.860413 32.290107-151.591021 81.205143C204.132894 207.363 76.893562 353.73456 76.893562 529.607918l0 39.77863c0 197.942195 161.054805 358.963423 358.973816 358.963423l152.245577 0c197.96418 0 358.995801-161.021228 358.995801-358.963423L947.108756 529.607918C947.108756 362.793618 832.540434 222.74577 678.059172 182.718709L678.059172 182.718709zM522.90017 146.306796c72.621563 0 131.712699 59.068152 131.712699 131.689714 0 13.406311-2.078191 26.303966-5.872818 38.490104l-251.679961 0c-3.727473-12.186338-5.872818-25.083793-5.872818-38.490304C391.186272 205.374948 450.277608 146.306796 522.90017 146.306796L522.90017 146.306796zM896.464693 569.385349c0 170.023724-138.308427 308.354136-308.352937 308.354136l-152.245577 0c-170.022525 0-308.330952-138.330412-308.330952-308.354136l0-39.77863c0-138.749128 92.160915-256.275845 218.45189-294.844695-3.410488 13.902574-5.39854 28.314003-5.39854 43.234287 0 13.214441 1.490789 26.055334 4.178567 38.490104l-25.592648 0c-13.326565 0-24.123844 10.774095-24.123844 24.090267s10.797279 24.123844 24.123844 24.123844l401.734024 0c13.326565 0 24.101859-10.808872 24.101859-24.123844 0-13.304579-10.774095-24.090267-24.101859-24.090267l-19.831954 0c2.687778-12.434969 4.178567-25.275863 4.178567-38.490104 0-11.81379-1.220173-23.345572-3.388702-34.560368 113.799444 45.379633 194.598662 156.355991 194.598662 286.170976L896.465093 569.385349 896.464693 569.385349zM608.396004 589.693979c13.326565 0 24.123844-10.819265 24.123844-24.136635 0-13.304579-10.797279-24.101859-24.123844-24.101859l-50.868511 0 48.316042-48.316042c9.419813-9.419813 9.419813-24.689461 0-34.096483-9.419813-9.430206-24.689461-9.430206-34.086289 0l-59.769077 59.769077-59.747091-59.769077c-9.419813-9.430206-24.666276-9.430206-34.08609 0-9.396829 9.408221-9.396829 24.677868 0 34.096682l48.339026 48.316042-50.913481 0c-13.304579 0-24.101859 10.797279-24.101859 24.101859 0 13.317371 10.797279 24.136635 24.101859 24.136635l72.305777 0 0 48.180733L415.580732 637.874913c-13.304579 0-24.101859 10.797279-24.101859 24.101859 0 13.326565 10.797279 24.113451 24.101859 24.113451l72.305777 0 0 64.286414c0 13.304579 10.774095 24.101859 24.101859 24.101859 13.326565 0 24.101859-10.797279 24.101859-24.101859l0-64.286414 72.305777 0c13.326565 0 24.123844-10.785687 24.123844-24.113451 0-13.304579-10.797279-24.101859-24.123844-24.101859l-72.305777 0 0-48.180733L608.396004 589.694179 608.396004 589.693979z" p-id="6564" fill="#d81e06"></path></svg>