<?xml version="1.0" standalone="no"?><!DOCTYPE svg PUBLIC "-//W3C//DTD SVG 1.1//EN" "http://www.w3.org/Graphics/SVG/1.1/DTD/svg11.dtd"><svg t="1597346370800" class="icon" viewBox="0 0 1024 1024" version="1.1" xmlns="http://www.w3.org/2000/svg" p-id="34801" xmlns:xlink="http://www.w3.org/1999/xlink" width="200" height="200"><defs><style type="text/css"></style></defs><path d="M512 907.600548c-53.399411 0-105.213734-10.464851-154.00431-31.101701-47.112308-19.928271-89.419182-48.450622-125.745116-84.778604-36.324911-36.325935-64.846237-78.632808-84.773484-125.74614-20.634802-48.787504-31.098629-100.598755-31.098629-153.99407 0-53.395315 10.462803-105.206567 31.098629-153.99407 19.926223-47.113332 48.448574-89.420206 84.773484-125.74614 36.325935-36.326959 78.631784-64.850333 125.745116-84.778604 48.789552-20.63685 100.603875-31.101701 154.00431-31.101701 53.399411 0 105.213734 10.464851 154.00431 31.101701 47.113332 19.928271 89.419182 48.451645 125.745116 84.778604 36.324911 36.325935 64.846237 78.632808 84.77246 125.74614 20.634802 48.787504 31.098629 100.598755 31.098629 153.99407 0 71.822463-19.594461 141.989186-56.766185 203.64989l51.648442 155.475737c2.77595 8.357545 0.596968 17.564976-5.629721 23.792688-6.227713 6.226689-15.437191 8.404647-23.792688 5.628697l-154.519361-51.337159C656.299236 887.438815 585.131082 907.600548 512 907.600548zM512 162.903529c-192.48158 0-349.076504 156.594924-349.076504 349.076504S319.517396 861.055513 512 861.055513c67.844386 0 133.781139-19.677401 190.682486-56.904419 5.944076-3.888993 13.338077-4.847417 20.077769-2.611093l120.934562 40.179089L803.242331 719.944882c-2.216869-6.673134-1.298379-13.989314 2.499482-19.905744 36.199988-56.401656 55.333667-121.431181 55.333667-188.059106C861.07548 319.498453 704.48158 162.903529 512 162.903529zM512 688.154058c-5.954316 0-11.908632-2.271139-16.452957-6.813417L356.961493 542.802193c-47.27307-47.300717-47.271022-124.231707-0.003072-171.499657 22.925396-22.897749 53.379955-35.502672 85.7657-35.502672 25.136121 0 49.100835 7.592649 69.274856 21.694599 20.174021-14.10195 44.138734-21.694599 69.27588-21.694599 32.38472 0 62.840304 12.604923 85.75546 35.493457 47.277166 47.277166 47.279214 124.208155 0.014335 171.501704l-138.592718 138.54664C523.908632 685.882919 517.953292 688.154058 512 688.154058zM442.72412 382.342852c-19.964109 0-38.737356 7.770817-52.863881 21.879935-29.116246 29.116246-29.114198 76.523455 0.014335 105.669396L512 631.976649l122.131569-122.09061c29.121366-29.138773 29.123414-76.545982-0.002048-105.671443-14.116285-14.099902-32.890555-21.870719-52.853641-21.870719-19.957966 0-38.717901 7.766722-52.81985 21.869695-4.365133 4.364109-10.28361 6.816489-16.456029 6.816489s-12.09192-2.451355-16.456029-6.815465C481.440997 390.110597 462.682086 382.342852 442.72412 382.342852z" p-id="34802" fill="#d81e06"></path></svg>