<?xml version="1.0" standalone="no"?><!DOCTYPE svg PUBLIC "-//W3C//DTD SVG 1.1//EN" "http://www.w3.org/Graphics/SVG/1.1/DTD/svg11.dtd"><svg t="1597345414695" class="icon" viewBox="0 0 1024 1024" version="1.1" xmlns="http://www.w3.org/2000/svg" p-id="28783" xmlns:xlink="http://www.w3.org/1999/xlink" width="200" height="200"><defs><style type="text/css"></style></defs><path d="M28.24192 973.76256a460.0832 50.23744 0 1 0 920.1664 0 460.0832 50.23744 0 1 0-920.1664 0Z" fill="#B7CED2" p-id="28784"></path><path d="M872.12032 715.81696l-57.36448 121.11872-127.63136-1.57696-64.79872-119.54176s139.59168-60.02688 249.79456 0zM248.05376 454.32832s20.84864 89.92768 75.71456 145.83808L229.376 598.016l-67.95264-118.784 86.6304-24.90368z" fill="#F1D1A4" p-id="28785"></path><path d="M626.50368 715.81696l-59.61728 51.5072-20.48 80.15872 237.03552-10.26048 68.1984 77.66016-23.2448 23.32672H133.50912l-48.49664 11.38688 159.29344-233.7792 205.824-0.6144" fill="#F1D1A4" p-id="28786"></path><path d="M508.98944 92.59008c22.36416 1.37216 42.8032 4.66944 62.30016 11.776 91.32032 33.4848 145.79712 98.14016 162.32448 194.58048 0.43008 2.1504 0.79872 4.34176 0.98304 6.53312 0.53248 7.76192-3.74784 13.43488-10.58816 14.11072-6.4512 0.65536-11.71456-3.91168-13.0048-11.40736-1.24928-7.29088-2.08896-14.6432-3.64544-21.85216-18.88256-87.2448-90.03008-154.43968-177.664-167.79264-6.79936-1.04448-13.7216-1.47456-21.95456-2.33472 2.048 2.41664 3.03104 3.7888 4.1984 5.0176 9.3184 9.87136 18.75968 19.6608 28.03712 29.5936 5.40672 5.77536 5.48864 12.75904 0.43008 17.59232-4.75136 4.54656-12.00128 4.38272-17.08032-0.90112a6904.50432 6904.50432 0 0 1-51.99872-54.784 15.36 15.36 0 0 1 1.59744-21.99552c19.88608-15.70816 39.95648-31.17056 60.08832-46.57152 5.67296-4.32128 12.51328-3.33824 16.5888 1.76128 4.15744 5.24288 3.35872 12.41088-2.39616 16.97792-12.1856 9.66656-24.53504 19.08736-38.21568 29.696M859.97568 925.96224l-36.1472-47.77984H791.9616l36.43392 60.02688H101.376l129.49504-169.8816c28.2624 41.49248 69.20192 72.192 123.31008 91.648 19.51744 7.00416 39.95648 10.11712 62.32064 11.38688-13.59872 10.69056-25.88672 20.19328-37.96992 29.9008-5.71392 4.608-6.47168 11.776-2.27328 16.9984 4.096 5.07904 10.89536 6.02112 16.52736 1.65888 20.09088-15.50336 40.0384-31.15008 59.84256-46.94016a15.36 15.36 0 0 0 1.4336-22.016c-17.32608-18.26816-34.816-36.37248-52.3264-54.45632-5.12-5.24288-12.36992-5.36576-17.12128-0.79872-4.99712 4.85376-4.85376 11.83744 0.59392 17.59232 9.3184 9.87136 18.80064 19.59936 28.20096 29.40928 1.16736 1.24928 2.19136 2.60096 4.23936 4.99712-8.27392-0.79872-15.19616-1.18784-21.99552-2.17088-62.3616-9.09312-116.46976-45.568-149.56544-97.13664l8.56064-11.24352h76.88192c11.50976 0 27.52512 2.1504 27.52512-9.35936s-15.99488-11.93984-27.52512-11.93984h-87.2448c-4.95616 0-9.33888 2.17088-13.04576 5.30432a214.36416 214.36416 0 0 1-14.27456-42.27072c-1.65888-7.20896-2.53952-14.56128-3.80928-21.83168-1.3312-7.4752-6.61504-12.02176-13.04576-11.32544-6.84032 0.7168-11.07968 6.41024-10.48576 14.19264 0.16384 2.17088 0.55296 4.36224 0.96256 6.49216 4.9152 27.56608 13.25056 52.20352 24.33024 74.5472l-140.06272 185.0368a20.84864 20.84864 0 1 0 16.67072 33.46432H843.3664c7.92576 0 15.13472-4.48512 18.65728-11.55072a20.74624 20.74624 0 0 0-2.048-21.95456zM706.06848 761.67168l-7.72096-18.96448c2.00704-0.8192 50.36032-20.09088 101.53984-1.51552l-6.9632 19.23072c-43.95008-15.872-86.4256 1.08544-86.85568 1.24928zM748.9536 791.12192a14.66368 14.66368 0 0 1-14.39744-14.88896c0-8.21248 6.4512-14.90944 14.39744-14.90944s14.39744 6.67648 14.39744 14.90944a14.66368 14.66368 0 0 1-14.39744 14.88896z m0-20.48c-3.35872 0-6.08256 2.51904-6.08256 5.59104 0 6.16448 12.16512 6.16448 12.16512 0 0-3.072-2.72384-5.59104-6.08256-5.59104z" fill="#8E5711" p-id="28787"></path><path d="M640.43008 499.07712a198.38976 198.38976 0 0 0 26.19392-97.93536 197.26336 197.26336 0 0 0-58.18368-140.41088 197.18144 197.18144 0 0 0-140.3904-58.14272l-0.3072 0.06144c-0.1024 0-0.18432-0.06144-0.3072-0.06144a197.38624 197.38624 0 0 0-140.43136 58.14272 197.36576 197.36576 0 0 0-58.12224 140.41088c0 34.46784 9.216 67.95264 26.07104 97.6896 0.3072 0.65536 0.32768 1.37216 0.7168 2.00704l2.84672 4.73088 150.99904 251.61728c3.91168 6.51264 10.83392 10.11712 17.92 10.11712l0.28672-0.04096 0.28672 0.04096c7.10656 0 14.0288-3.60448 17.96096-10.11712l150.8352-251.37152 0.18432-0.22528 0.36864-0.67584 2.43712-4.07552c0.34816-0.55296 0.36864-1.18784 0.63488-1.76128z m-172.97408-254.70976l0.3072-0.06144 0.3072 0.06144c86.4256 0 156.81536 70.32832 156.81536 156.79488a156.2624 156.2624 0 0 1-23.42912 82.432L467.74272 706.3552l-133.79584-222.98624a156.13952 156.13952 0 0 1-23.28576-82.20672c0-86.46656 70.30784-156.79488 156.79488-156.79488z" fill="#8E5711" p-id="28788"></path><path d="M640.69632 366.34624c-15.54432-57.5488-48.20992-132.58752-160.44032-134.81984-112.2304-2.23232-158.72 59.74016-182.92736 136.54016-21.1968 67.35872 38.44096 146.55488 50.0736 170.55744 11.6736 24.02304 119.99232 189.1328 119.99232 189.1328s89.088-134.61504 123.4944-189.1328c34.44736-54.51776 65.37216-114.72896 49.80736-172.27776z m-171.3152 104.67328a63.44704 63.44704 0 1 1 0-126.89408 63.44704 63.44704 0 0 1 0 126.89408z" fill="#F1D1A4" p-id="28789"></path><path d="M467.456 316.33408c-50.31936 0-91.2384 40.91904-91.2384 91.21792s40.91904 91.21792 91.2384 91.21792c50.2784 0 91.17696-40.91904 91.17696-91.21792s-40.89856-91.21792-91.17696-91.21792z m1.92512 154.68544a63.44704 63.44704 0 1 1 0-126.89408 63.44704 63.44704 0 0 1 0 126.89408zM753.3568 459.79648c-54.04672 0.2048-97.6896 44.72832-97.34144 99.40992 0.28672 53.80096 44.25728 97.1776 98.304 97.01376 54.39488-0.16384 97.56672-44.09344 97.32096-99.10272-0.28672-53.69856-44.52352-97.52576-98.28352-97.32096z m0.45056 171.17184a72.9088 72.9088 0 0 1-72.92928-72.94976 72.9088 72.9088 0 1 1 145.87904 0 72.92928 72.92928 0 0 1-72.94976 72.94976zM756.79744 677.1712c-9.58464 0-15.62624 0.47104-15.89248 0.512-65.96608 0-117.00224 18.0224-151.69536 53.53472-47.08352 48.18944-46.1824 110.51008-46.12096 113.152l0.24576 9.99424h411.72992v-10.24c-0.02048-154.91072-151.7568-166.95296-198.26688-166.95296z m-14.72512 20.97152c0.24576-0.02048 5.71392-0.47104 14.72512-0.47104 25.1904 0 66.10944 3.29728 102.33856 20.50048l-63.65184 115.75296h-104.20224l-64.12288-107.19232c29.14304-18.90304 67.39968-28.54912 114.91328-28.59008z m-138.0352 47.2064c2.12992-2.1504 4.48512-4.05504 6.7584-6.08256l56.6272 94.65856h-103.30112c1.82272-18.1248 9.25696-57.32352 39.91552-88.576z m214.81472 88.576l58.22464-105.84064c30.5152 19.968 54.49728 52.59264 57.22112 105.84064h-115.44576zM236.21632 394.99776c-32.3584-9.9328-56.07424-39.71072-56.07424-75.32544a79.1552 79.1552 0 0 1 79.1552-79.1552c9.44128 0 18.35008 1.92512 26.76736 4.95616 3.76832-5.28384 7.51616-10.30144 11.28448-14.97088a96.3584 96.3584 0 0 0-37.60128-7.74144 97.3824 97.3824 0 0 0-98.32448 97.97632 98.11968 98.11968 0 0 0 75.79648 95.8464c-0.67584-7.3728-0.96256-14.5408-1.00352-21.58592zM249.56928 599.04l-73.66656-116.14208c19.3536-9.23648 43.13088-16.01536 72.94976-18.35008l-1.59744-20.41856c-173.54752 13.6192-172.46208 163.86048-172.4416 165.35552l0.2048 10.0352H323.7888v-20.48h-74.21952z m-91.62752-106.1888l67.3792 106.1888H95.76448c2.02752-21.77024 12.24704-73.33888 62.17728-106.1888z" fill="#8E5711" p-id="28790"></path></svg>