<?xml version="1.0" standalone="no"?><!DOCTYPE svg PUBLIC "-//W3C//DTD SVG 1.1//EN" "http://www.w3.org/Graphics/SVG/1.1/DTD/svg11.dtd"><svg t="1597344942810" class="icon" viewBox="0 0 1024 1024" version="1.1" xmlns="http://www.w3.org/2000/svg" p-id="14916" xmlns:xlink="http://www.w3.org/1999/xlink" width="200" height="200"><defs><style type="text/css"></style></defs><path d="M897.8 689.9H78.3c-12.4 0-22.4-10-22.4-22.4L14.3 359c0-12.4 10-22.4 22.4-22.4h666.8c135.9 0 301.5 110.2 301.5 246.1 0 51.5-78.5 107.2-107.2 107.2z" fill="#83C6EF" p-id="14917"></path><path d="M703.5 336.6H467.7l82.4 353.3h347.6c28.7 0 107.2-55.7 107.2-107.2 0.1-136-165.5-246.1-301.4-246.1z" fill="#429BCF" p-id="14918"></path><path d="M897.8 555.9H734.1c-12.4 0-22.4-10-22.4-22.4L628.6 359c0-12.4 10-22.4 22.4-22.4h52.5c135.9 0 262.3 99.3 273.8 169.7 0 51.6-50.8 49.6-79.5 49.6z" fill="#2D416C" p-id="14919"></path><path d="M66.2 436h100.7v69.4H66.2z" fill="#F9C85D" p-id="14920"></path><path d="M116.5 436h50.3v69.4h-50.3z" fill="#FFB103" p-id="14921"></path><path d="M216.6 436h100.7v69.4H216.6z" fill="#F9C85D" p-id="14922"></path><path d="M266.9 436h50.3v69.4h-50.3z" fill="#FFB103" p-id="14923"></path><path d="M367 436h100.7v69.4H367z" fill="#F9C85D" p-id="14924"></path><path d="M417.4 436h50.3v69.4h-50.3z" fill="#FFB103" p-id="14925"></path><path d="M517.5 436h100.7v69.4H517.5z" fill="#F9C85D" p-id="14926"></path><path d="M567.8 436h50.3v69.4h-50.3z" fill="#FFB103" p-id="14927"></path></svg>