<?xml version="1.0" standalone="no"?><!DOCTYPE svg PUBLIC "-//W3C//DTD SVG 1.1//EN" "http://www.w3.org/Graphics/SVG/1.1/DTD/svg11.dtd"><svg t="1597345151313" class="icon" viewBox="0 0 1024 1024" version="1.1" xmlns="http://www.w3.org/2000/svg" p-id="19297" xmlns:xlink="http://www.w3.org/1999/xlink" width="200" height="200"><defs><style type="text/css"></style></defs><path d="M347.52 225.501l49.589 49.59-102.855 102.854-49.589-49.589z" fill="#D96478" p-id="19298"></path><path d="M294.26 394.19c-4.16 0-8.31-1.59-11.48-4.76l-49.59-49.59c-3.04-3.05-4.76-7.18-4.76-11.48s1.71-8.44 4.76-11.48l102.86-102.86c3.04-3.05 7.18-4.76 11.48-4.76s8.44 1.71 11.48 4.76l49.59 49.59c6.34 6.34 6.34 16.62 0 22.96L305.74 389.44a16.188 16.188 0 0 1-11.48 4.75z m-26.63-65.83l26.63 26.63 79.89-79.89-26.63-26.63-79.89 79.89z" fill="#49416F" p-id="19299"></path><path d="M696.002 779.705l-49.59-49.589 102.856-102.855 49.589 49.59z" fill="#D96478" p-id="19300"></path><path d="M696 795.93c-4.16 0-8.31-1.59-11.48-4.76l-49.59-49.59c-3.04-3.05-4.76-7.18-4.76-11.48s1.71-8.44 4.76-11.48l102.86-102.86c6.34-6.34 16.62-6.34 22.96 0l49.59 49.59c3.04 3.05 4.76 7.18 4.76 11.48s-1.71 8.44-4.76 11.48L707.48 791.18a16.188 16.188 0 0 1-11.48 4.75z m-26.63-65.83L696 756.73l79.89-79.89-26.63-26.63-79.89 79.89z" fill="#49416F" p-id="19301"></path><path d="M686.48 337.88L216.02 81.26l-63.55 63.56 397.37 329.7 329.7 397.37 63.55-63.55z" fill="#EE8C98" p-id="19302"></path><path d="M879.54 871.89l63.55-63.55-45.67-83.75-76.57 76.57z" fill="#D96478" p-id="19303"></path><path d="M353.17 671.19l-240.92-75.3-39.35 39.35 189.5 126.72 126.72 189.5 39.35-39.35z" fill="#EE8C98" p-id="19304"></path><path d="M389.12 967.7a16.242 16.242 0 0 1-13.5-7.21L250.69 773.67 63.87 648.74c-4.04-2.7-6.66-7.07-7.13-11.91s1.24-9.63 4.68-13.07l39.35-39.35a16.25 16.25 0 0 1 16.33-4.02l240.92 75.3c5.08 1.59 9.07 5.57 10.65 10.65l75.3 240.92c1.8 5.77 0.26 12.06-4.02 16.33l-39.35 39.35a16.23 16.23 0 0 1-11.48 4.76zM98.37 632.73l173.06 115.73c1.77 1.18 3.29 2.7 4.47 4.47l115.73 173.06 18.42-18.41-69.83-223.43-223.43-69.83-18.42 18.41zM879.54 888.13c-0.25 0-0.5-0.01-0.75-0.02-4.56-0.21-8.83-2.34-11.74-5.85L538.31 486.05 142.1 157.32a16.218 16.218 0 0 1-5.85-11.74c-0.21-4.56 1.51-9.01 4.74-12.24l63.56-63.56a16.243 16.243 0 0 1 19.26-2.77l470.46 256.61c2.74 1.49 4.99 3.74 6.48 6.48l256.61 470.46a16.247 16.247 0 0 1-2.77 19.26l-63.56 63.56c-3.06 3.05-7.2 4.75-11.49 4.75zM176.55 143.7l383.66 318.32c0.77 0.64 1.49 1.35 2.13 2.13l318.32 383.66 42.37-42.37-248.51-455.6-455.6-248.5-42.37 42.36z" fill="#49416F" p-id="19305"></path><path d="M472.14 691.33l330.81-330.81c41.9-41.9 67.06-97.66 70.76-156.8 1.88-30.06-23.02-54.95-53.07-53.07a243.229 243.229 0 0 0-156.8 70.76l-330.81 330.8a243.191 243.191 0 0 0-47.14 66.43l-87.62 181.9c-7.86 16.31 9.23 33.4 25.55 25.55l181.9-87.62a243.357 243.357 0 0 0 66.42-47.14z" fill="#FFFFFF" p-id="19306"></path><path d="M215.36 844.3c-9.11 0-18.01-3.58-24.87-10.44-10.78-10.78-13.47-26.63-6.85-40.37l87.62-181.9a258.894 258.894 0 0 1 50.28-70.86l330.81-330.81a259.289 259.289 0 0 1 167.27-75.49c19-1.18 37.57 5.84 51.01 19.28a66.341 66.341 0 0 1 19.29 51.01 259.289 259.289 0 0 1-75.49 167.27l-330.8 330.82a258.866 258.866 0 0 1-70.86 50.29l-181.9 87.62c-5.01 2.41-10.29 3.58-15.51 3.58z m608.5-677.52c-0.73 0-1.47 0.02-2.21 0.07a226.816 226.816 0 0 0-146.33 66.04L344.52 563.7a226.314 226.314 0 0 0-43.99 61.99l-87.62 181.9c-0.24 0.51-0.89 1.85 0.56 3.31 1.46 1.46 2.8 0.81 3.31 0.56l181.9-87.62c23.05-11.1 43.9-25.9 61.99-43.99l330.81-330.81a226.866 226.866 0 0 0 66.04-146.33c0.61-9.82-2.88-19.06-9.84-26.02-6.44-6.44-14.83-9.91-23.82-9.91zM472.14 691.33h0.03-0.03z" fill="#49416F" p-id="19307"></path><path d="M686.39 261.88l77.64 77.64 27.5-27.5c21.44-21.44 21.44-56.2 0-77.64-21.44-21.44-56.2-21.44-77.64 0l-27.5 27.5z" fill="#7BA2D5" p-id="19308"></path><path d="M284.31 756.29c-4.16 0-8.31-1.59-11.48-4.76-6.34-6.34-6.34-16.62 0-22.96l102.36-102.36c6.34-6.34 16.62-6.34 22.96 0s6.34 16.62 0 22.96L295.79 751.53a16.198 16.198 0 0 1-11.48 4.76z" fill="#49416F" p-id="19309"></path><path d="M764.03 355.76c-4.31 0-8.44-1.71-11.48-4.76l-77.64-77.64c-6.34-6.34-6.34-16.62 0-22.96l27.5-27.5c13.44-13.44 31.3-20.84 50.3-20.84 19 0 36.87 7.4 50.3 20.84 13.44 13.44 20.84 31.3 20.84 50.3 0 19-7.4 36.87-20.84 50.3l-27.5 27.5a16.202 16.202 0 0 1-11.48 4.76z m-54.67-93.88l54.68 54.68 16.02-16.02c7.3-7.3 11.33-17.01 11.33-27.34 0-10.33-4.02-20.04-11.33-27.34-7.3-7.3-17.01-11.32-27.34-11.32-10.33 0-20.04 4.02-27.34 11.32l-16.02 16.02z" fill="#49416F" p-id="19310"></path></svg>