<?xml version="1.0" standalone="no"?><!DOCTYPE svg PUBLIC "-//W3C//DTD SVG 1.1//EN" "http://www.w3.org/Graphics/SVG/1.1/DTD/svg11.dtd"><svg t="1597343508662" class="icon" viewBox="0 0 1024 1024" version="1.1" xmlns="http://www.w3.org/2000/svg" p-id="1820" xmlns:xlink="http://www.w3.org/1999/xlink" width="200" height="200"><defs><style type="text/css"></style></defs><path d="M909.982 833.85h-793.49c-27.39 0-49.593-22.202-49.593-49.592V635.477c0.005-13.693 11.105-24.791 24.796-24.797 0-1.172-0.51-2.172-0.666-3.299 43.048-10.824 75.057-49.475 75.057-95.881 0-46.418-32.008-85.064-75.057-95.888 0.157-1.127 0.666-2.133 0.666-3.3-13.692 0-24.796-11.102-24.796-24.796V238.73c0-27.39 22.202-49.588 49.593-49.588h793.49c27.39 0 49.593 22.197 49.593 49.588v148.784c0 13.695-11.098 24.798-24.796 24.798 0 1.167 0.51 2.172 0.671 3.299-43.053 10.824-75.062 49.476-75.062 95.888 0 46.405 32.008 85.057 75.057 95.881-0.156 1.127-0.666 2.128-0.666 3.3 13.693 0 24.79 11.104 24.796 24.796v148.781c0 27.39-22.203 49.593-49.593 49.593z m0-182.219c-57.746-20.449-99.188-75.386-99.188-140.131 0-64.752 41.441-119.69 99.188-140.14V263.527c0-13.693-11.105-24.796-24.797-24.796H141.288c-13.693 0-24.796 11.103-24.796 24.796V371.36c57.745 20.449 99.187 75.386 99.187 140.139 0 64.745-41.44 119.683-99.187 140.131v107.835c0 13.693 11.103 24.792 24.796 24.792h743.897c13.693 0 24.797-11.1 24.797-24.792V651.631z m-285.162-40.95h-86.785v61.995c0 6.844-5.548 12.394-12.397 12.394H500.84c-6.85 0-12.399-5.55-12.399-12.394V610.68h-86.79c-6.848 0-12.397-5.544-12.397-12.393v-24.802c0-6.844 5.549-12.393 12.398-12.393h86.79V511.5h-86.79c-6.85 0-12.398-5.555-12.398-12.399v-24.797c0-6.849 5.549-12.403 12.398-12.403h68.331l-76.371-83.528c-4.358-4.766-4.358-12.492 0-17.257l15.78-17.267c4.354-4.76 11.418-4.76 15.783 0l87.405 95.604 88.436-96.725c4.393-4.81 11.512-4.81 15.905 0l15.904 17.389c4.397 4.81 4.397 12.599 0 17.404l-77.15 84.381h69.145c6.854 0 12.398 5.555 12.398 12.403V499.1c0 6.844-5.544 12.399-12.398 12.399h-86.785v49.592h86.785c6.854 0 12.398 5.55 12.398 12.393v24.802c-0.001 6.85-5.55 12.394-12.4 12.394z m0 0" fill="#d81e06" p-id="1821"></path></svg>